<?xml version="1.0" standalone="no"?>
<!DOCTYPE svg PUBLIC "-//W3C//DTD SVG 20010904//EN"
 "http://www.w3.org/TR/2001/REC-SVG-20010904/DTD/svg10.dtd">
<svg version="1.0" xmlns="http://www.w3.org/2000/svg"
 width="377.000000pt" height="134.000000pt" viewBox="0 0 377.000000 134.000000"
 preserveAspectRatio="xMidYMid meet">

<g transform="translate(0.000000,134.000000) scale(0.100000,-0.100000)"
fill="#000000" stroke="none">
<path d="M60 1010 l0 -291 333 3 332 3 3 163 c1 89 5 162 8 162 2 0 84 -46
182 -101 97 -56 196 -112 219 -125 l41 -24 36 41 c61 71 79 158 54 257 -9 35
-25 61 -67 103 -96 95 -78 93 -648 97 l-493 3 0 -291z"/>
<path d="M1585 1288 c-5 -16 -61 -325 -71 -391 l-7 -49 139 4 c109 3 147 7
176 22 84 41 110 158 46 207 l-21 17 21 11 c43 23 66 106 42 151 -15 29 -72
40 -203 40 -85 0 -119 -3 -122 -12z m233 -101 c6 -48 -21 -67 -95 -67 -62 0
-63 0 -63 28 0 69 6 73 84 70 70 -3 71 -3 74 -31z m-24 -153 c23 -22 20 -51
-9 -79 -21 -22 -33 -25 -96 -25 -69 0 -71 1 -66 23 3 12 9 39 12 60 l7 37 68
0 c49 0 73 -5 84 -16z"/>
<path d="M2020 1281 c0 -11 -3 -26 -6 -35 -5 -13 2 -16 39 -16 46 0 57 10 57
51 0 16 -7 19 -45 19 -38 0 -45 -3 -45 -19z"/>
<path d="M2399 1225 c-13 -77 -18 -85 -38 -61 -33 40 -128 26 -178 -26 -42
-44 -64 -98 -64 -162 -1 -61 11 -89 47 -113 33 -21 105 -21 138 0 31 21 37 21
30 2 -5 -12 3 -15 39 -15 50 0 51 1 62 80 4 25 20 116 36 203 16 88 29 161 29
163 0 2 -20 4 -44 4 l-45 0 -12 -75z m-49 -134 c24 -45 2 -137 -39 -168 -37
-28 -87 -9 -105 41 -9 26 12 97 37 124 27 29 91 31 107 3z"/>
<path d="M3606 1225 c-7 -42 -9 -45 -37 -45 -16 0 -29 -5 -29 -12 0 -7 -3 -23
-6 -35 -5 -20 -2 -23 20 -23 31 0 30 4 11 -97 -28 -146 -20 -163 73 -163 43 0
50 3 56 23 10 38 7 47 -18 47 -14 0 -27 4 -30 9 -3 5 1 47 10 95 l16 86 33 0
c25 0 34 5 39 23 11 40 7 47 -25 47 l-31 0 6 45 7 45 -44 0 -45 0 -6 -45z"/>
<path d="M3320 1181 c-67 -13 -110 -58 -110 -115 0 -33 27 -53 106 -79 77 -25
91 -49 43 -76 -34 -19 -76 -7 -91 25 -10 22 -17 25 -52 22 -39 -3 -41 -4 -38
-33 2 -16 11 -38 19 -48 23 -25 89 -40 142 -32 82 12 125 45 136 105 9 52 -15
76 -98 99 -79 22 -85 26 -71 49 17 26 80 28 96 3 9 -15 23 -21 50 -21 33 0 38
3 38 24 0 35 -30 66 -75 76 -44 11 -46 11 -95 1z"/>
<path d="M2000 1178 c0 -2 -14 -75 -30 -163 -16 -88 -30 -161 -30 -162 0 -2
20 -3 45 -3 38 0 45 3 49 23 3 12 15 78 26 147 12 69 24 133 27 143 4 14 -3
17 -41 17 -25 0 -46 -1 -46 -2z"/>
<path d="M2520 1163 c0 -19 36 -252 45 -290 5 -20 12 -23 55 -23 l49 0 80 154
c45 84 81 159 81 165 0 6 -16 11 -35 11 -35 0 -36 -1 -91 -115 -31 -64 -58
-114 -60 -112 -2 2 -8 39 -14 83 -20 155 -15 144 -65 144 -36 0 -45 -3 -45
-17z"/>
<path d="M2934 1161 c-82 -50 -131 -163 -103 -237 37 -98 177 -112 262 -27 20
20 37 40 37 45 0 16 -72 8 -97 -12 -51 -40 -123 -15 -123 42 0 16 12 18 119
18 l119 0 7 29 c10 44 -11 106 -46 135 -25 21 -41 26 -87 26 -38 0 -67 -6 -88
-19z m128 -77 c10 -20 9 -27 -2 -34 -19 -12 -123 -5 -128 8 -7 22 37 52 78 52
34 0 42 -4 52 -26z"/>
<path d="M1669 637 c-66 -19 -109 -47 -130 -87 -37 -68 -16 -164 43 -200 35
-21 44 -24 171 -61 88 -25 117 -51 98 -88 -16 -29 -81 -44 -132 -31 -32 9 -43
18 -55 46 l-14 34 -74 0 -73 0 7 -40 c21 -112 114 -166 274 -158 146 8 216 68
216 184 0 53 -4 67 -26 94 -35 41 -82 64 -185 90 -83 21 -119 41 -119 66 0 59
138 58 160 -1 9 -25 13 -26 82 -23 l73 3 -3 30 c-5 47 -46 100 -95 124 -56 27
-157 35 -218 18z"/>
<path d="M2786 625 c-61 -22 -108 -66 -145 -138 -28 -55 -34 -77 -34 -134 -1
-88 24 -160 73 -216 137 -155 409 -112 464 73 9 29 13 56 10 61 -3 5 -36 9
-74 9 -69 0 -70 0 -83 -33 -29 -66 -92 -92 -159 -64 -51 21 -78 77 -78 159 0
108 48 170 132 170 54 0 84 -17 101 -54 11 -27 14 -28 90 -28 l77 0 -6 28
c-14 63 -58 116 -123 149 -54 29 -73 33 -134 33 -40 -1 -89 -7 -111 -15z"/>
<path d="M3240 339 l0 -292 148 6 c81 3 165 11 187 19 64 21 130 92 150 162
26 88 17 196 -20 265 -58 105 -122 131 -327 131 l-138 0 0 -291z m269 143 c48
-24 73 -62 79 -121 6 -65 -18 -131 -56 -153 -15 -9 -53 -19 -84 -23 l-58 -7 0
161 0 161 43 0 c23 0 57 -8 76 -18z"/>
<path d="M60 325 l0 -285 469 0 c440 0 473 1 533 20 70 21 141 75 177 133 11
18 25 61 32 97 15 82 -4 157 -54 215 l-33 38 -120 -65 c-65 -36 -166 -93 -224
-127 l-105 -61 -3 160 -2 160 -335 0 -335 0 0 -285z"/>
</g>
</svg>
