<svg width="564" height="79" viewBox="0 0 564 79" fill="none" xmlns="http://www.w3.org/2000/svg">
<path d="M0.666992 39.3346V78.668H9.33366H18.0003L18.267 56.5346L18.667 34.4013L28.8003 56.268L38.8003 78.0013H48.667H58.5337L62.8003 67.3346C70.5337 47.868 75.867 36.0013 76.9337 36.0013C77.6003 36.0013 78.0003 45.6013 78.0003 57.3346V78.668H86.0003H94.0003V39.3346V0.00129798H84.1337H74.1337L70.8003 7.46797C68.9337 11.6013 67.3337 15.6013 67.3337 16.4013C67.3337 17.2013 63.067 27.068 57.7337 38.4013L48.1337 58.9346L44.5337 51.7346C42.4003 47.868 40.8003 43.868 40.667 42.8013C40.667 41.7346 36.4003 31.6013 31.067 20.4013L21.467 0.00129798H11.067H0.666992V39.3346Z" fill="black"/>
<path d="M135.867 4.80165C134.667 7.46831 130.534 16.535 126.534 25.0683C122.534 33.4683 119.334 41.0683 119.334 42.0017C119.334 42.935 116.134 50.4017 112.267 58.8017C101.867 80.8017 101.734 78.6683 113.334 78.6683H123.334L126.667 71.335L129.867 64.0017H150.934H172.001L174.667 71.0683L177.334 78.0017L187.734 78.4017C200.401 78.8017 200.667 81.8683 185.067 48.6683C178.801 35.4683 172.667 21.6016 171.334 18.0016C170.134 14.2683 167.867 8.80165 166.534 5.73498L164.001 0.00164791H150.934H137.867L135.867 4.80165ZM158.801 33.4683C162.001 40.8017 164.667 47.335 164.667 48.0017C164.667 48.8017 158.934 49.335 150.534 49.335C139.734 49.335 136.534 48.935 137.067 47.6017C137.467 46.8017 139.601 41.2017 141.867 35.335C144.267 29.4683 147.067 22.535 148.134 20.0016C150.667 14.535 150.134 14.0016 158.801 33.4683Z" fill="black"/>
<path d="M207.334 39.3346V78.668L245.067 78.4013L282.667 78.0013V70.9346V63.868L254.001 63.6013L225.334 63.3346V55.3346V47.3346L250.401 46.9346L275.467 46.668L275.067 38.9346L274.667 31.3346L249.734 30.9346L224.667 30.668V23.3346V16.0013H253.334H282.001V8.0013V0.00129798H244.667H207.334V39.3346Z" fill="black"/>
<path d="M298 39.3346V78.668H307.333H316.667V65.3346V52.0013H327.2H337.733L346.133 65.3346L354.667 78.668H364.267C369.6 78.668 374 78.4013 374 78.0013C374 77.6013 370.4 71.868 365.867 65.2013C361.467 58.5346 358 52.9346 358.267 52.8013C358.533 52.668 361.2 51.7346 364.267 50.9346C367.333 50.0013 371.067 47.7346 372.667 45.6013C375.333 42.268 375.6 40.8013 375.067 24.4013C374.667 8.0013 374.4 6.66796 371.467 3.46796L368.267 0.00129798H333.067H298V39.3346ZM356.667 26.0013V36.0013H336.667H316.667V26.0013V16.0013H336.667H356.667V26.0013Z" fill="black"/>
<path d="M395.201 1.73425C394.001 2.66758 392.401 4.66758 391.601 6.26758C389.601 10.0009 389.467 37.8676 391.467 41.6009C394.267 46.8009 400.401 48.0009 424.667 48.0009H447.467L447.067 55.6009L446.667 63.3343H428.001C409.601 63.3343 409.334 63.3343 408.934 60.2676C408.534 57.6009 407.867 57.3343 399.201 57.3343H390.001V65.3343C390.001 78.9343 389.334 78.6676 428.001 78.6676H460.667L462.801 75.2009C466.267 70.0009 467.067 47.2009 464.134 39.4676C461.067 31.4676 458.267 30.6676 431.201 30.6676H408.667V23.3343V16.0009H428.001H447.334V19.3343C447.334 22.8009 447.467 22.8009 456.401 22.4009L465.334 22.0009L465.067 14.4009C464.934 10.0009 463.867 5.46758 462.534 3.46758L460.401 0.000915494H428.801C406.134 0.134249 396.801 0.534249 395.201 1.73425Z" fill="black"/>
<path d="M483.601 38.9341L484.001 78.0008L493.067 78.4008L502.001 78.8008V62.0008C502.001 52.8008 502.534 45.3341 503.067 45.3341C503.734 45.3341 512.001 52.8008 521.467 62.0008L538.667 78.6674L551.334 78.5341H564.001L542.267 57.4674L520.534 36.4008L528.267 30.1341C535.601 24.2674 545.201 15.8674 557.334 4.93411L562.667 0.13411L550.001 0.00077714H537.334L522.134 14.0008C500.667 34.0008 502.001 33.8674 502.001 15.3341V0.00077714H492.667H483.334L483.601 38.9341Z" fill="black"/>
</svg>
