<?xml version="1.0" standalone="no"?>
<!DOCTYPE svg PUBLIC "-//W3C//DTD SVG 20010904//EN"
 "http://www.w3.org/TR/2001/REC-SVG-20010904/DTD/svg10.dtd">
<svg version="1.0" xmlns="http://www.w3.org/2000/svg"
 width="666.000000pt" height="375.000000pt" viewBox="0 0 666.000000 375.000000"
 preserveAspectRatio="xMidYMid meet">

<g transform="translate(0.000000,375.000000) scale(0.100000,-0.100000)"
fill="#000000" stroke="none">
<path d="M2944 3649 c-132 -10 -244 -60 -374 -167 l-40 -34 0 91 0 91 -365 0
-365 0 0 -883 c0 -673 -3 -886 -12 -895 -33 -33 -251 10 -380 74 -26 13 -51
24 -56 24 -12 0 -105 -239 -98 -255 8 -21 135 -82 218 -105 189 -51 400 -45
638 17 429 112 453 113 836 23 257 -60 326 -71 474 -71 147 0 236 14 385 61
198 62 313 84 455 84 122 0 128 -1 275 -49 279 -90 268 -87 415 -88 108 0 152
4 220 22 83 22 165 57 209 91 l23 16 -50 95 c-27 52 -51 105 -55 118 -4 17
-11 22 -24 18 -10 -2 -58 -17 -108 -32 -73 -23 -111 -28 -200 -29 -73 -1 -121
4 -142 13 l-32 13 -3 652 c-3 648 -3 651 -25 706 -56 137 -146 240 -279 318
-114 67 -185 84 -354 84 -80 0 -167 -5 -195 -11 -72 -17 -230 -99 -286 -148
-26 -24 -50 -43 -54 -43 -3 0 -23 13 -43 30 -66 52 -195 120 -277 145 -89 27
-190 34 -331 24z m-109 -659 c19 -19 44 -58 55 -87 19 -51 20 -78 20 -503 0
-375 -2 -450 -14 -450 -7 0 -32 7 -55 15 -23 8 -99 19 -168 25 -68 5 -129 12
-134 16 -5 3 -9 193 -9 450 0 483 0 484 56 536 37 33 53 37 141 35 68 -2 75
-5 108 -37z m1122 14 c37 -27 71 -78 83 -124 6 -24 9 -201 8 -466 l-3 -429
-59 -7 c-32 -4 -107 -21 -165 -38 -59 -16 -119 -30 -134 -30 l-27 0 0 495 c0
546 -1 541 61 588 44 32 60 36 141 34 50 -2 75 -8 95 -23z"/>
<path d="M2270 1563 c-107 -12 -246 -81 -323 -161 -77 -81 -110 -153 -115
-258 -6 -120 13 -178 89 -259 34 -35 75 -73 92 -84 48 -29 141 -57 247 -75
172 -29 331 -67 365 -88 60 -35 58 -86 -5 -118 -81 -41 -208 -12 -235 55 -8
19 -15 47 -15 63 l0 29 -187 6 c-104 4 -230 7 -280 7 l-93 0 0 -60 c0 -164
126 -345 305 -437 136 -70 178 -77 435 -77 218 1 228 2 305 28 105 36 152 64
234 142 100 94 124 152 129 310 4 115 3 123 -23 174 -15 29 -50 77 -79 105
-91 92 -220 138 -530 190 -153 25 -191 40 -205 78 -12 31 12 73 50 86 103 36
219 -14 230 -99 l4 -25 260 -7 c159 -5 263 -4 269 2 5 5 5 31 -3 67 -40 205
-232 367 -476 403 -66 9 -369 11 -445 3z"/>
<path d="M3915 1559 c-36 -5 -99 -28 -160 -58 -82 -40 -116 -64 -186 -133 -69
-66 -94 -98 -122 -158 -93 -197 -116 -421 -62 -606 22 -75 77 -192 111 -236
48 -60 164 -153 239 -190 135 -67 161 -73 365 -73 168 0 191 2 252 23 37 13
92 40 121 60 74 51 182 149 198 181 8 14 31 55 52 91 32 56 87 201 87 231 0 5
-115 9 -294 9 l-294 0 -4 -53 c-6 -71 -36 -113 -91 -128 -58 -15 -109 1 -144
48 l-28 36 -3 203 c-3 187 -2 206 17 242 40 78 104 103 172 69 53 -27 85 -79
95 -154 l6 -53 289 0 289 0 -7 33 c-31 166 -112 348 -191 430 -68 70 -164 137
-241 165 -59 23 -83 25 -236 28 -93 1 -197 -2 -230 -7z"/>
</g>
</svg>
