<?xml version="1.0" standalone="no"?>
<!DOCTYPE svg PUBLIC "-//W3C//DTD SVG 20010904//EN"
 "http://www.w3.org/TR/2001/REC-SVG-20010904/DTD/svg10.dtd">
<svg version="1.0" xmlns="http://www.w3.org/2000/svg"
 width="500.000000pt" height="500.000000pt" viewBox="0 0 500.000000 500.000000"
 preserveAspectRatio="xMidYMid meet">

<g transform="translate(0.000000,500.000000) scale(0.100000,-0.100000)"
fill="#000000" stroke="none">
<path d="M1882 3131 c-115 -33 -190 -79 -283 -171 -52 -52 -96 -107 -115 -142
-16 -32 -31 -58 -34 -58 -3 0 -21 28 -40 62 -43 76 -147 181 -224 227 -31 19
-90 46 -129 60 -64 23 -87 26 -207 26 -148 -1 -208 -15 -319 -78 -68 -38 -180
-143 -221 -208 -48 -73 -87 -184 -100 -279 -20 -141 19 -307 99 -425 82 -122
188 -207 327 -262 63 -25 81 -27 209 -27 112 -1 151 3 195 18 85 29 180 82
239 134 52 45 151 173 151 196 0 6 7 19 14 28 12 16 16 12 42 -40 35 -69 168
-206 238 -245 101 -56 184 -79 301 -85 93 -4 124 -1 190 17 174 48 293 139
406 311 l15 24 33 -58 c52 -90 156 -187 253 -235 124 -60 189 -74 333 -69 96
4 135 10 193 30 136 49 262 151 342 278 l35 55 3 -162 2 -161 333 -7 c182 -3
400 -5 482 -3 l150 3 3 190 c1 105 0 200 -3 213 l-5 22 -270 0 -270 0 0 415 0
415 -210 0 -210 0 0 -187 0 -187 -50 76 c-67 101 -155 181 -255 229 -122 59
-188 72 -325 66 -185 -8 -306 -59 -433 -184 -34 -34 -75 -84 -92 -112 -16 -28
-32 -51 -35 -51 -3 0 -18 24 -35 52 -16 29 -62 85 -102 125 -79 79 -188 140
-298 168 -82 21 -243 19 -323 -4z m246 -241 c35 -22 68 -69 77 -111 6 -24 11
-27 64 -31 39 -3 68 -11 90 -28 39 -27 70 -90 71 -139 0 -50 -37 -120 -77
-143 -19 -11 -32 -26 -29 -32 24 -57 29 -88 17 -126 -37 -125 -188 -173 -278
-88 l-22 21 -42 -38 c-97 -87 -196 -86 -269 4 -50 60 -52 136 -6 204 l23 34
-34 28 c-38 30 -72 95 -73 136 0 58 55 140 108 160 13 5 46 9 73 9 45 0 49 2
49 24 0 31 38 85 79 113 45 30 132 32 179 3z m-1171 -189 c133 -68 166 -248
65 -354 -74 -78 -190 -96 -278 -42 -113 71 -146 216 -72 325 63 92 185 123
285 71z m2372 -1 c21 -10 43 -26 50 -34 12 -14 45 -16 232 -16 l219 0 0 -135
0 -135 -203 0 -203 0 -30 -31 c-93 -98 -228 -97 -320 3 -76 82 -77 208 -2 293
71 81 166 102 257 55z"/>
<path d="M2023 2803 c-15 -6 -17 -39 -3 -48 13 -8 13 -175 0 -175 -13 0 -32
46 -34 79 -1 29 -23 40 -32 16 -4 -10 2 -24 15 -36 11 -11 21 -24 21 -29 0 -4
3 -15 6 -24 9 -24 -19 -20 -44 7 -12 13 -22 29 -22 35 0 7 -9 12 -21 12 -27 0
-22 -33 6 -38 28 -5 67 -44 56 -55 -13 -13 -151 34 -162 55 -12 23 -48 23 -56
2 -8 -21 25 -48 42 -34 17 14 168 -38 161 -55 -2 -7 0 -17 6 -23 12 -12 -41
-52 -71 -52 -12 0 -21 -6 -21 -14 0 -28 21 -27 51 3 30 30 59 41 59 21 0 -21
-86 -129 -105 -132 -25 -4 -32 -43 -9 -52 21 -8 47 12 39 31 -5 15 80 143 96
143 15 0 10 -54 -7 -79 -11 -15 -13 -26 -6 -33 15 -15 33 0 31 25 -4 49 1 77
16 77 14 0 27 -47 22 -85 -1 -12 5 -21 16 -23 12 -2 17 3 17 16 0 11 -4 22 -9
24 -5 2 -12 20 -16 41 -6 28 -4 37 6 37 19 -1 99 -120 99 -147 0 -21 24 -38
41 -27 17 10 9 46 -11 51 -18 5 -94 96 -106 128 -10 26 23 17 61 -16 25 -23
39 -29 47 -21 13 13 2 32 -20 32 -36 1 -67 27 -68 58 -2 29 2 31 68 53 38 12
84 22 101 23 22 1 33 7 35 19 5 26 -28 34 -47 11 -16 -20 -158 -70 -168 -60
-8 8 26 44 55 59 29 14 33 31 8 35 -11 2 -19 -4 -23 -17 -5 -21 -51 -57 -60
-47 -9 8 18 65 35 75 9 5 13 15 9 26 -10 24 -31 13 -38 -21 -8 -41 -28 -76
-40 -69 -13 9 -11 152 3 174 6 10 8 26 5 35 -7 16 -13 18 -34 9z"/>
<path d="M1850 2490 c0 -21 24 -28 35 -10 3 6 18 10 32 10 37 0 26 6 -24 14
-39 6 -43 4 -43 -14z"/>
<path d="M2160 2500 l-35 -7 31 -2 c16 0 35 -6 42 -13 14 -14 38 4 28 21 -8
12 -14 12 -66 1z"/>
</g>
</svg>
