<?xml version="1.0" standalone="no"?>
<!DOCTYPE svg PUBLIC "-//W3C//DTD SVG 20010904//EN"
 "http://www.w3.org/TR/2001/REC-SVG-20010904/DTD/svg10.dtd">
<svg version="1.0" xmlns="http://www.w3.org/2000/svg"
 width="404.000000pt" height="125.000000pt" viewBox="0 0 404.000000 125.000000"
 preserveAspectRatio="xMidYMid meet">

<g transform="translate(0.000000,125.000000) scale(0.100000,-0.100000)"
fill="#000000" stroke="none">
<path d="M398 1240 c-32 -4 -89 -17 -127 -30 l-69 -22 -21 -111 c-27 -149 -34
-197 -29 -197 2 0 28 9 59 19 153 54 299 50 574 -18 88 -22 198 -47 244 -55
146 -28 300 -19 416 25 l52 19 26 148 c15 81 27 150 27 154 0 3 -33 -5 -72
-19 -91 -31 -240 -41 -358 -24 -45 7 -162 32 -259 56 -234 59 -338 71 -463 55z"/>
<path d="M1710 1175 c0 -3 -43 -247 -95 -543 -52 -297 -95 -544 -95 -551 0 -8
46 -11 177 -9 l177 3 17 100 c10 55 21 115 24 133 l6 32 137 0 c79 0 165 6
203 14 243 52 411 275 397 526 -9 146 -78 241 -206 280 -59 18 -93 20 -403 20
-186 0 -339 -2 -339 -5z m547 -328 c50 -49 30 -135 -40 -177 -26 -16 -51 -20
-134 -20 -90 0 -103 2 -103 17 0 19 29 181 36 202 3 10 27 12 109 9 99 -3 107
-5 132 -31z"/>
<path d="M2820 1178 c-1 -2 -45 -250 -98 -553 l-97 -550 174 -3 c95 -1 176 -1
178 2 2 2 48 252 102 555 l97 551 -178 0 c-98 0 -178 -1 -178 -2z"/>
<path d="M3305 1158 c-3 -13 -45 -255 -95 -538 -49 -283 -92 -523 -94 -533 -4
-16 20 -17 432 -15 l436 3 27 153 26 152 -253 0 c-226 0 -254 2 -254 16 0 9
29 182 65 385 36 203 65 375 65 384 0 13 -25 15 -175 15 -173 0 -175 0 -180
-22z"/>
<path d="M330 839 c-36 -4 -95 -18 -132 -30 -57 -18 -68 -25 -72 -48 -21 -105
-48 -273 -44 -276 3 -3 31 4 63 15 157 54 298 47 620 -33 204 -50 214 -51 355
-52 125 0 156 3 223 24 43 13 79 27 81 30 4 5 56 290 56 303 0 2 -33 -7 -72
-20 -56 -19 -100 -26 -188 -30 -130 -5 -197 5 -455 69 -88 22 -200 44 -250 49
-100 11 -95 11 -185 -1z"/>
<path d="M173 421 c-40 -11 -81 -25 -93 -31 -23 -12 -23 -13 -53 -186 l-23
-130 71 24 c54 20 96 26 187 30 136 5 186 -2 443 -66 186 -46 193 -47 350 -47
146 0 166 2 230 25 l70 26 22 119 c11 66 24 137 27 158 l6 38 -27 -15 c-75
-38 -230 -58 -361 -45 -49 5 -180 32 -293 60 -186 47 -216 51 -344 55 -116 3
-152 1 -212 -15z"/>
</g>
</svg>
