<?xml version="1.0" standalone="no"?>
<!DOCTYPE svg PUBLIC "-//W3C//DTD SVG 20010904//EN"
 "http://www.w3.org/TR/2001/REC-SVG-20010904/DTD/svg10.dtd">
<svg version="1.0" xmlns="http://www.w3.org/2000/svg"
 width="622.000000pt" height="401.000000pt" viewBox="0 0 622.000000 401.000000"
 preserveAspectRatio="xMidYMid meet">

<g transform="translate(0.000000,401.000000) scale(0.100000,-0.100000)"
fill="#000000" stroke="none">
<path d="M2404 3970 c-688 -57 -1265 -409 -1613 -982 l-23 -38 129 0 129 0 34
57 c128 212 314 403 535 550 313 209 717 315 1080 283 187 -16 186 -13 33 -89
-356 -177 -629 -425 -826 -748 l-32 -53 128 0 129 0 14 28 c28 56 112 174 183
259 182 219 416 388 675 488 l94 37 61 -22 c358 -129 736 -429 912 -725 l39
-65 133 0 c72 0 132 3 132 6 0 14 -98 143 -200 263 -208 245 -445 432 -715
565 l-80 39 40 8 c22 5 108 11 190 15 298 13 570 -47 850 -188 297 -150 559
-389 705 -646 l35 -61 128 -1 128 0 -12 23 c-19 34 -75 113 -144 202 -348 447
-846 725 -1407 785 -204 21 -486 5 -671 -39 -72 -17 -78 -17 -145 0 -167 42
-461 64 -648 49z"/>
<path d="M5392 2760 c-211 -30 -356 -120 -429 -267 -34 -70 -37 -81 -41 -188
-6 -142 16 -222 83 -314 104 -142 253 -201 505 -201 303 0 510 92 590 262 41
86 53 157 48 269 -4 81 -10 106 -38 167 -57 124 -172 210 -336 252 -86 22
-290 33 -382 20z m298 -207 c91 -37 125 -109 125 -263 0 -86 -4 -113 -21 -151
-46 -99 -122 -139 -263 -139 -133 0 -205 41 -250 140 -32 70 -30 226 4 298 35
76 90 119 170 133 55 10 193 0 235 -18z"/>
<path d="M1610 2745 c-220 -50 -356 -173 -396 -359 -46 -214 41 -423 219 -525
96 -55 193 -75 357 -75 176 1 282 20 395 74 178 83 268 248 252 459 -18 232
-160 378 -414 427 -92 17 -336 17 -413 -1z m353 -189 c102 -37 142 -112 141
-266 -1 -147 -43 -227 -144 -273 -35 -16 -65 -20 -140 -20 -83 1 -103 4 -147
27 -54 27 -90 67 -114 126 -19 49 -18 224 3 271 23 52 77 109 123 130 49 23
219 25 278 5z"/>
<path d="M2797 2729 c-93 -22 -167 -85 -188 -161 -6 -23 -9 -77 -7 -118 4
-105 38 -160 123 -203 59 -30 63 -31 261 -38 211 -7 233 -12 253 -56 24 -52 7
-97 -44 -119 -27 -11 -94 -14 -300 -14 l-265 0 0 -90 0 -90 355 0 c212 0 374
4 404 11 81 17 134 57 170 130 91 182 -26 361 -259 398 -36 6 -127 11 -203 11
-133 0 -139 1 -162 25 -34 33 -34 87 0 120 l24 25 291 0 290 0 0 90 0 90 -352
-1 c-194 -1 -370 -5 -391 -10z"/>
<path d="M428 2720 c-130 -22 -218 -60 -288 -126 -87 -82 -125 -191 -118 -341
8 -159 61 -258 178 -333 121 -77 281 -102 630 -98 l235 3 3 93 3 92 -28 1
c-457 14 -488 16 -541 37 -55 21 -96 58 -114 102 -11 27 -12 215 -2 259 11 43
54 92 103 115 43 19 65 21 314 24 l267 3 0 90 0 89 -297 -1 c-164 -1 -319 -5
-345 -9z"/>
<path d="M4125 2719 c-172 -29 -298 -108 -358 -224 -45 -89 -59 -235 -32 -338
33 -128 100 -208 222 -264 126 -58 174 -65 511 -70 l302 -5 0 96 0 96 -82 1
c-46 0 -162 4 -258 8 -157 7 -181 10 -230 33 -95 43 -138 135 -127 270 11 125
63 194 167 217 25 6 154 11 288 11 l242 0 0 90 0 90 -297 -1 c-164 -1 -321 -5
-348 -10z"/>
<path d="M5470 1596 c-75 -20 -121 -47 -151 -89 -39 -54 -52 -106 -47 -197 3
-65 8 -82 35 -125 18 -28 48 -61 67 -74 68 -45 99 -50 314 -51 l202 0 0 130 0
130 -75 0 -75 0 0 -65 0 -65 -118 0 c-132 0 -154 8 -178 66 -30 73 -12 160 42
203 25 20 39 21 215 21 l189 0 0 65 0 65 -187 -1 c-117 0 -205 -5 -233 -13z"/>
<path d="M410 1584 c-60 -20 -97 -61 -105 -117 -9 -56 0 -98 27 -132 37 -47
73 -58 203 -62 157 -5 196 -21 180 -73 -10 -33 -51 -40 -225 -40 l-170 0 0
-55 0 -55 228 0 c259 0 290 7 332 74 18 31 22 48 18 99 -4 74 -25 108 -84 137
-34 17 -60 20 -165 20 -137 0 -169 10 -169 55 0 45 40 55 225 55 l165 0 0 55
0 55 -207 0 c-158 -1 -219 -5 -253 -16z"/>
<path d="M1150 1583 c0 -10 -1 -130 -2 -268 l-1 -250 76 -3 77 -3 0 106 0 105
125 0 125 0 0 -105 0 -105 80 0 80 0 0 270 0 270 -80 0 -80 0 0 -111 0 -112
-77 7 c-42 3 -98 6 -125 6 l-48 0 0 105 0 105 -75 0 c-65 0 -75 -2 -75 -17z"/>
<path d="M1990 1330 l0 -271 78 3 77 3 3 245 c1 135 0 255 -3 268 -5 20 -11
22 -80 22 l-75 0 0 -270z"/>
<path d="M4470 1330 l0 -270 80 0 80 0 1 158 0 157 39 -45 c21 -25 81 -97 132
-160 l94 -115 77 -3 77 -3 0 271 0 270 -80 0 -80 0 0 -155 c0 -85 -3 -155 -7
-155 -5 1 -64 73 -133 160 l-125 160 -77 0 -78 0 0 -270z"/>
<path d="M2430 1321 l0 -271 80 0 80 0 0 99 0 98 133 5 c146 6 198 21 249 73
49 49 50 146 2 196 -50 53 -98 62 -331 67 l-213 4 0 -271z m353 180 c57 -22
84 -83 54 -122 -23 -31 -56 -39 -151 -39 l-96 0 0 78 c0 43 3 82 7 85 10 10
158 8 186 -2z"/>
<path d="M3230 1320 l0 -270 75 0 74 0 3 103 3 102 140 6 c158 6 194 17 243
73 55 63 51 149 -9 200 -54 46 -114 56 -331 56 l-198 0 0 -270z m379 164 c24
-19 31 -34 31 -60 0 -66 -47 -88 -180 -82 l-75 3 -3 69 c-2 38 -1 75 2 83 4
10 30 13 100 13 87 0 97 -2 125 -26z"/>
<path d="M4040 1320 l0 -270 80 0 80 0 0 270 0 270 -80 0 -80 0 0 -270z"/>
<path d="M930 864 c0 -12 93 -118 180 -204 269 -268 599 -451 972 -540 291
-69 655 -70 951 -4 65 15 73 15 195 -10 506 -102 1039 -13 1477 246 177 105
420 314 536 460 l42 53 -123 3 -123 3 -68 -74 c-339 -368 -853 -596 -1354
-601 -88 0 -182 3 -209 7 l-49 9 124 61 c113 56 261 149 364 227 63 48 259
244 310 310 l46 60 -118 0 -119 0 -57 -69 c-167 -203 -459 -410 -706 -501 -91
-33 -95 -33 -199 9 -271 109 -498 273 -714 519 l-38 42 -120 0 c-66 0 -120 -3
-120 -6 0 -3 38 -49 85 -103 117 -136 262 -262 421 -366 78 -52 276 -156 322
-170 80 -24 -48 -40 -308 -39 -172 0 -212 4 -335 28 -221 45 -431 129 -601
243 -137 91 -307 249 -394 366 l-35 46 -117 1 c-65 0 -118 -3 -118 -6z"/>
</g>
</svg>
