<?xml version="1.0" standalone="no"?>
<!DOCTYPE svg PUBLIC "-//W3C//DTD SVG 20010904//EN"
 "http://www.w3.org/TR/2001/REC-SVG-20010904/DTD/svg10.dtd">
<svg version="1.0" xmlns="http://www.w3.org/2000/svg"
 width="1171.000000pt" height="213.000000pt" viewBox="0 0 1171.000000 213.000000"
 preserveAspectRatio="xMidYMid meet">

<g transform="translate(0.000000,213.000000) scale(0.100000,-0.100000)"
fill="#000000" stroke="none">
<path d="M1010 2055 c-92 -15 -222 -59 -310 -106 -167 -89 -331 -257 -414
-424 -89 -178 -120 -348 -103 -562 22 -284 187 -563 430 -727 344 -232 792
-230 1135 3 188 127 320 308 395 540 30 94 31 101 31 286 0 185 -1 192 -31
286 -59 181 -147 324 -272 441 -238 222 -537 313 -861 263z m105 -21 c-11 -8
-55 -37 -98 -65 -42 -27 -107 -78 -143 -112 l-67 -62 -48 53 c-27 30 -49 60
-49 68 0 34 289 130 400 133 24 0 25 0 5 -15z m311 -19 c108 -29 224 -80 224
-98 0 -7 -22 -38 -50 -68 -43 -46 -51 -52 -62 -39 -17 20 -136 120 -173 146
-16 11 -56 35 -87 53 -32 18 -58 35 -58 38 0 10 114 -8 206 -32z m-276 -4 c0
-6 -5 -13 -10 -16 -16 -10 -76 -108 -122 -198 -22 -45 -43 -84 -45 -86 -5 -6
-94 37 -123 60 l-25 19 45 41 c63 56 145 118 209 156 58 35 71 39 71 24z m96
-6 c60 -30 176 -113 229 -164 l56 -54 -43 -28 c-45 -30 -97 -54 -102 -48 -2 2
-20 38 -41 79 -22 41 -61 108 -87 149 -60 92 -60 90 -12 66z m-66 -255 c5 0
11 57 12 128 l3 127 21 -35 c12 -19 38 -62 59 -95 20 -33 50 -86 66 -118 l29
-57 -25 -10 c-15 -6 -51 -13 -81 -16 -30 -4 -54 -11 -54 -15 0 -13 38 -11 100
6 30 8 58 15 62 15 3 0 14 -20 25 -45 10 -25 21 -45 26 -45 9 0 9 1 -8 51 -17
48 -18 47 45 80 25 13 53 30 64 39 17 14 21 12 53 -25 49 -56 98 -132 138
-212 41 -83 42 -82 -91 -114 -52 -12 -99 -28 -106 -36 -14 -17 4 -14 128 23
45 13 89 24 97 24 21 0 43 -71 62 -195 22 -148 22 -145 -25 -145 -22 0 -40 -4
-40 -10 0 -5 6 -11 13 -11 6 -1 17 -2 22 -4 6 -1 18 -3 28 -3 10 -1 17 -10 17
-22 0 -11 5 -20 10 -20 6 0 10 9 10 20 0 11 6 20 13 21 12 0 296 0 309 -1 10
0 -1 -89 -24 -194 -17 -80 -76 -237 -98 -259 -4 -5 -22 -1 -40 8 -17 9 -35 13
-38 9 -4 -4 -1 -9 5 -11 7 -3 23 -13 35 -23 l22 -18 -29 -43 c-63 -96 -190
-220 -286 -281 -25 -16 -28 -16 -44 2 -25 28 -40 25 -22 -4 19 -29 16 -32 -67
-70 -69 -31 -225 -72 -306 -80 -61 -7 -61 -7 30 49 33 21 48 35 37 35 -11 0
-31 -8 -45 -18 -58 -39 -104 -48 -70 -14 6 6 8 15 4 19 -4 5 -14 -1 -22 -11
-12 -17 -14 -18 -14 -3 0 23 -20 22 -20 0 -1 -17 -1 -17 -14 -1 -7 10 -19 18
-26 18 -9 0 -7 -6 5 -20 29 -32 12 -32 -48 1 -32 17 -62 29 -69 27 -6 -2 18
-21 55 -42 37 -20 67 -39 67 -42 0 -20 -243 36 -345 79 -94 39 -98 43 -78 73
19 29 7 31 -23 3 l-21 -20 -69 52 c-93 70 -145 121 -211 207 -58 76 -61 94
-18 114 14 6 25 15 25 20 0 10 -40 1 -54 -13 -19 -17 -28 -8 -63 67 -38 84
-77 224 -88 322 l-7 62 91 1 c50 0 124 1 164 2 67 0 72 -1 75 -21 4 -29 20
-28 24 1 2 13 9 21 18 19 21 -5 60 7 60 18 0 6 -18 10 -40 10 -39 0 -40 1 -40
35 0 50 28 213 44 260 8 22 21 41 28 43 8 2 64 -11 123 -28 127 -35 116 -33
109 -16 -3 7 -41 21 -86 31 -45 9 -96 24 -114 31 -30 13 -32 17 -24 39 27 70
112 209 166 269 22 24 29 28 43 18 9 -7 42 -25 74 -42 31 -17 57 -32 57 -33 0
-2 -14 -41 -31 -87 -37 -102 -60 -198 -49 -205 4 -3 14 19 20 48 15 60 69 219
79 229 3 4 31 1 61 -7 62 -17 110 -19 110 -6 0 4 -24 11 -52 14 -29 3 -65 10
-81 16 l-27 11 31 62 c17 34 57 102 88 152 l56 91 3 -127 c1 -71 7 -128 12
-128z m-475 134 c9 -14 24 -33 33 -43 56 -58 57 -50 -3 -130 -30 -40 -73 -113
-97 -161 -24 -49 -49 -89 -56 -90 -30 -1 -242 98 -242 113 0 17 98 141 152
193 78 74 168 143 189 144 4 0 14 -12 24 -26z m1047 -21 c116 -86 278 -269
261 -296 -8 -13 -184 -96 -219 -102 -28 -6 -31 -3 -68 76 -22 45 -66 118 -98
160 -58 77 -59 79 -42 104 9 14 20 25 24 25 4 0 20 18 35 40 15 22 31 40 35
40 5 0 37 -21 72 -47z m-1347 -351 c39 -19 94 -43 123 -54 28 -10 52 -22 52
-26 0 -4 -12 -50 -25 -102 -14 -52 -28 -130 -32 -172 l-6 -78 -163 0 c-135 0
-164 2 -164 14 0 44 24 176 44 244 26 85 84 215 94 210 4 -2 39 -18 77 -36z
m1674 -57 c42 -95 75 -223 84 -322 l4 -53 -162 0 -162 0 -7 70 c-4 38 -18 115
-32 170 -13 56 -24 105 -24 109 0 4 30 20 68 35 37 15 92 40 122 55 30 16 58
29 61 30 3 0 25 -42 48 -94z"/>
<path d="M1178 1665 c-3 -5 -11 -46 -18 -90 -7 -44 -21 -120 -31 -169 -10 -49
-19 -102 -19 -118 0 -15 -4 -28 -10 -28 -5 0 -51 20 -101 45 -50 25 -95 45
-100 45 -5 0 -3 -13 6 -30 8 -16 31 -63 49 -104 l34 -73 -152 -38 c-83 -21
-152 -39 -154 -40 -2 -2 36 -12 85 -24 48 -11 118 -29 155 -39 l66 -18 -47
-99 c-27 -55 -45 -101 -40 -103 4 -2 49 17 100 42 50 25 96 43 100 40 5 -3 9
-16 9 -28 0 -13 11 -77 24 -142 13 -66 27 -143 31 -171 4 -29 11 -53 15 -53 5
0 12 21 15 47 8 62 64 345 69 350 2 2 44 -17 94 -42 88 -43 117 -53 110 -37
-1 4 -22 46 -45 95 -24 48 -43 91 -43 95 0 4 48 20 108 35 59 15 127 33 151
40 l44 12 -155 39 -155 39 35 76 c19 42 42 86 50 99 8 12 12 25 9 28 -3 3 -49
-15 -103 -40 -53 -26 -98 -45 -100 -43 -5 5 -56 264 -70 357 -5 30 -12 51 -16
45z"/>
<path d="M1430 1548 c0 -13 28 -113 40 -143 8 -19 9 -19 9 3 1 34 -30 152 -40
152 -5 0 -9 -5 -9 -12z"/>
<path d="M980 1352 c24 -15 110 -25 110 -13 0 6 -10 11 -22 11 -13 0 -41 3
-63 6 -27 4 -35 2 -25 -4z"/>
<path d="M1303 1353 c-18 -2 -33 -9 -33 -14 0 -11 85 -2 110 12 16 9 -14 10
-77 2z"/>
<path d="M856 1299 c-13 -86 -16 -159 -7 -159 11 0 18 34 24 117 5 61 -9 94
-17 42z"/>
<path d="M1488 1324 c-10 -15 3 -184 13 -184 11 0 11 99 1 155 -4 22 -11 35
-14 29z"/>
<path d="M845 933 c12 -110 17 -136 25 -123 8 12 4 110 -6 158 -2 12 -9 22
-15 22 -7 0 -8 -20 -4 -57z"/>
<path d="M1487 909 c-6 -92 3 -138 15 -74 10 56 10 155 -1 155 -4 0 -11 -37
-14 -81z"/>
<path d="M418 966 c-42 -6 -79 -14 -82 -17 -3 -3 -1 -45 6 -93 8 -69 14 -86
25 -82 8 4 19 6 24 6 5 0 6 26 2 60 -5 51 -3 60 10 60 11 0 18 -12 22 -37 13
-78 15 -84 33 -81 18 4 20 18 9 86 -6 37 -5 42 12 42 15 0 22 -9 26 -37 13
-78 15 -84 33 -81 19 4 22 53 8 141 -8 54 -2 52 -128 33z"/>
<path d="M1817 973 c-4 -3 -7 -16 -7 -29 0 -19 7 -23 50 -29 27 -4 52 -10 55
-14 2 -5 -22 -16 -55 -26 -58 -18 -69 -30 -70 -77 0 -14 9 -18 38 -18 20 -1
67 -7 105 -14 47 -9 67 -10 67 -2 0 6 3 21 6 33 5 19 1 22 -50 28 -31 4 -56
11 -56 15 0 4 27 15 59 25 54 16 60 21 64 49 2 17 3 33 1 35 -6 7 -137 30
-170 31 -17 0 -34 -3 -37 -7z"/>
<path d="M1040 802 c-55 -5 -61 -22 -8 -22 26 0 49 4 53 9 8 13 -5 17 -45 13z"/>
<path d="M1270 794 c0 -10 14 -14 52 -14 60 0 54 15 -9 23 -33 4 -43 2 -43 -9z"/>
<path d="M501 690 c-54 -59 -71 -85 -66 -99 13 -41 28 -44 137 -26 57 9 104
18 106 20 2 2 -3 17 -12 33 l-15 30 -67 -19 c-37 -10 -69 -17 -71 -16 -1 2 20
25 47 52 48 47 49 49 34 77 -8 15 -16 28 -18 28 -2 0 -36 -36 -75 -80z"/>
<path d="M737 750 c-80 -25 -91 -30 -84 -36 7 -7 179 35 192 47 15 15 -46 8
-108 -11z"/>
<path d="M1516 761 c8 -7 171 -51 191 -51 22 0 -21 21 -81 39 -70 22 -128 28
-110 12z"/>
<path d="M1740 703 c-65 -109 -66 -96 6 -139 113 -68 117 -70 129 -50 5 10 27
44 49 77 21 33 37 62 35 63 -2 2 -14 6 -25 10 -18 6 -26 -1 -49 -39 -18 -32
-31 -45 -42 -41 -8 3 -16 6 -19 6 -2 0 10 22 27 50 17 27 28 54 24 60 -13 21
-35 8 -61 -35 -14 -25 -30 -45 -34 -45 -21 0 -18 22 9 68 27 47 28 49 10 60
-10 7 -20 12 -22 12 -1 0 -18 -26 -37 -57z"/>
<path d="M879 735 c-16 -15 65 -271 88 -279 10 -4 9 5 -3 32 -9 20 -29 82 -45
137 -16 55 -30 104 -32 108 -1 5 -5 6 -8 2z"/>
<path d="M1461 700 c-14 -52 -64 -206 -76 -234 -6 -13 -5 -18 5 -14 23 7 99
248 87 280 -2 7 -10 -7 -16 -32z"/>
<path d="M690 572 c0 -4 -18 -30 -40 -57 -21 -28 -48 -62 -59 -76 l-19 -25 44
-35 c25 -19 58 -44 73 -56 21 -17 31 -19 39 -11 21 21 13 36 -34 68 -36 26
-43 34 -33 46 12 15 17 13 66 -24 33 -24 69 -24 61 1 -3 6 -23 26 -44 43 -22
16 -39 35 -36 42 6 19 24 14 62 -18 19 -17 40 -30 46 -30 10 0 24 21 24 35 0
4 -139 105 -145 105 -3 0 -5 -3 -5 -8z"/>
<path d="M1590 529 c-35 -26 -66 -52 -67 -56 -3 -9 16 -40 75 -118 39 -50 46
-55 60 -43 10 8 43 34 75 57 55 42 57 45 41 62 -16 18 -18 18 -53 -10 -52 -40
-57 -42 -70 -27 -10 11 -3 21 34 47 25 18 45 38 45 45 0 27 -23 25 -66 -6 -29
-20 -51 -29 -62 -25 -19 7 -19 7 57 65 32 24 32 26 14 41 -17 15 -22 13 -83
-32z"/>
<path d="M1075 480 c-110 -23 -100 -38 12 -19 34 6 60 15 57 20 -6 10 -13 10
-69 -1z"/>
<path d="M1210 480 c0 -5 17 -12 38 -15 20 -3 54 -10 75 -14 20 -5 39 -6 42
-2 2 5 -27 15 -64 24 -80 20 -91 20 -91 7z"/>
<path d="M865 438 c-10 -33 -46 -191 -43 -193 2 -1 15 -5 29 -9 28 -6 39 6 39
45 0 20 25 25 49 10 10 -6 12 -20 8 -44 -5 -31 -3 -36 20 -42 14 -3 28 -3 31
0 9 9 50 179 45 191 -2 6 -39 21 -82 33 -92 25 -90 25 -96 9z m108 -67 c4 -4
5 -15 1 -24 -4 -12 -13 -15 -33 -11 -34 9 -34 9 -26 34 5 16 12 19 28 14 12
-3 26 -9 30 -13z"/>
<path d="M1383 419 c-43 -13 -70 -25 -68 -32 2 -7 13 -53 25 -103 22 -91 22
-92 48 -84 24 6 27 11 24 48 -2 40 -1 42 27 42 26 0 31 -4 36 -34 6 -31 9 -33
33 -27 15 4 28 14 30 22 1 8 -8 52 -20 99 -27 99 -27 99 -135 69z m64 -55 c6
-17 -12 -34 -38 -34 -23 0 -32 38 -10 43 31 9 42 7 48 -9z"/>
<path d="M1084 387 c-2 -7 -4 -54 -2 -103 l3 -89 90 0 90 0 3 58 3 57 -51 0
c-43 0 -50 -3 -50 -20 0 -13 7 -20 20 -20 21 0 27 -24 9 -35 -5 -4 -21 -4 -35
-1 -23 6 -25 10 -22 59 l3 52 63 -3 63 -3 -3 28 -3 28 -88 3 c-67 2 -89 0 -93
-11z"/>
<path d="M2620 1060 l0 -500 433 0 434 0 -1 120 -1 120 -277 0 -278 0 0 80 0
80 279 0 280 0 -2 108 -2 107 -278 3 -278 2 3 68 3 67 275 5 275 5 1 118 1
117 -434 0 -433 0 0 -500z"/>
<path d="M3555 1543 c4 -10 13 -38 20 -63 7 -25 78 -241 158 -480 l144 -435
175 -3 175 -2 21 57 c12 32 58 171 103 308 45 138 111 336 146 440 34 105 63
191 63 193 0 1 -75 1 -167 0 l-167 -3 -7 -30 c-4 -16 -21 -84 -39 -150 -18
-66 -45 -167 -60 -225 -45 -172 -62 -222 -70 -213 -4 4 -22 62 -39 128 -17 66
-43 163 -57 215 -14 52 -36 136 -49 185 l-23 90 -167 3 c-157 2 -167 1 -160
-15z"/>
<path d="M4640 1060 l0 -500 430 0 430 0 0 120 0 120 -275 0 -275 0 0 80 0 80
275 0 275 0 0 110 0 110 -275 0 -275 0 0 70 0 70 275 0 275 0 0 120 0 120
-430 0 -430 0 0 -500z"/>
<path d="M5610 1060 l0 -500 155 0 155 0 0 175 0 175 101 0 c55 0 109 -5 121
-11 37 -20 48 -69 48 -209 l0 -131 153 3 152 3 0 209 0 209 -27 20 -27 20 21
11 c31 16 36 50 34 258 -2 206 -10 237 -67 257 -21 7 -163 11 -425 11 l-394 0
0 -500z m561 243 c21 -21 24 -119 5 -148 -16 -24 -19 -25 -136 -25 l-120 0 0
88 c0 49 3 92 7 96 13 13 231 2 244 -11z"/>
<path d="M6734 1551 c-49 -12 -89 -41 -104 -75 -11 -24 -15 -116 -18 -401 -4
-416 -2 -428 61 -479 l39 -31 356 0 c486 0 455 -23 460 338 l4 237 -241 0
-241 0 0 -100 0 -100 85 0 85 0 1 -27 c4 -102 -10 -113 -150 -113 -157 0 -151
-11 -151 261 0 170 3 219 14 235 13 17 27 19 140 19 134 0 149 -5 149 -49 0
-25 2 -26 62 -26 34 0 104 3 155 7 l92 6 -4 103 c-4 115 -16 142 -79 179 -32
19 -54 20 -359 22 -179 1 -339 -2 -356 -6z"/>
<path d="M7650 1060 l0 -500 155 0 155 0 0 175 0 175 101 0 c55 0 109 -5 121
-11 36 -20 48 -69 48 -209 l0 -130 153 0 154 0 -1 211 -1 211 -26 22 c-26 22
-26 23 -5 32 31 14 38 68 34 264 -4 197 -13 229 -69 249 -21 7 -163 11 -425
11 l-394 0 0 -500z m567 235 c19 -26 14 -142 -8 -156 -7 -5 -67 -9 -131 -9
l-118 0 0 96 0 96 121 -4 c107 -3 122 -5 136 -23z"/>
<path d="M8650 1060 l0 -500 435 0 435 0 0 120 0 120 -280 0 -280 0 0 80 0 80
280 0 280 0 0 110 0 111 -277 -1 -278 -1 -3 70 -3 71 281 0 280 0 0 120 0 120
-435 0 -435 0 0 -500z"/>
<path d="M9620 1060 l1 -500 435 0 434 0 0 120 0 120 -280 0 -280 0 0 80 0 80
280 0 280 0 0 110 0 110 -280 0 -281 0 3 68 3 67 278 3 277 2 0 120 0 120
-435 0 -435 0 0 -500z"/>
<path d="M10590 1060 l0 -500 160 0 160 0 0 270 c0 154 4 270 9 270 5 0 14
-12 20 -27 5 -16 19 -44 30 -63 44 -77 228 -416 234 -432 6 -16 23 -18 167
-18 121 0 160 3 160 13 0 6 2 231 3 499 l2 488 -162 0 -163 0 -2 -267 c-2
-188 -6 -262 -13 -247 -5 12 -71 132 -145 267 l-135 246 -162 1 -163 0 0 -500z"/>
</g>
</svg>
